<svg width="12" height="16" xmlns="http://www.w3.org/2000/svg">
  <path d="M6.7 0c-1 .7-2 2.2-2.1 3.3-.2.6-.1 1.3 0 2-.4-.5-.7-1-.8-1.9 0-.1 0-.2-.2-.3h-.4a9.4 9.4 0 0 0-3.2 7c0 2.8 1.6 4.6 3.9 5.9l.4-.1c.1-.1.2-.3.1-.4a2 2 0 0 1-.2-.9c0-1 .6-2 1.4-2.5.9.4 1.5 1.5 1.5 2.5l-.2.9c-.1.1 0 .3 0 .4h.5c2.3-1.2 3.9-3 3.9-5.8 0-2.4-1.2-4-2.3-5.4C8 3.3 7 2 7 .4 7.2.2 7 0 6.8 0zm-.3 1.3C6.6 2.8 7.5 4 8.4 5c1.1 1.4 2.1 2.8 2.1 5s-1 3.6-2.7 4.7v-.2c0-1.4-.8-2.7-2-3.3h-.3c-1.2.6-2 2-2 3.3v.2C1.8 13.7.7 12.3.7 10.1c0-2.1 1-4.3 2.5-6C3.5 5.4 4.2 6 5 6.6h.4c.1-.1.2-.3.1-.4-.2-1-.3-1.9-.1-2.7.1-.7.4-1.3 1.1-2.1z" fill="#5B5757" fill-rule="nonzero"/>
</svg>
